<svg xmlns="http://www.w3.org/2000/svg" viewBox="0 0 24 24" role="img" aria-label="Illustrator">
  <g transform="translate(2.0000 2.0000) scale(0.080000) translate(-0.0000 -0.0000)">
    <ns0:defs xmlns:ns0="http://www.w3.org/2000/svg"><ns0:style>.b{fill:#300;}.c{fill:#ff9a00;}</ns0:style></ns0:defs><ns0:rect xmlns:ns0="http://www.w3.org/2000/svg" class="b" width="250" height="250" rx="42.74" ry="42.74" /><ns0:path xmlns:ns0="http://www.w3.org/2000/svg" class="c" d="M122.11,66.15h-37.41l-42.97,115.62h33.48l5.58-17.27h42.98l5.58,17.27h34.5l-41.73-115.62ZM102.27,135.65h-12.17l12.17-37.69,12.17,37.69h-12.17Z" /><ns0:rect xmlns:ns0="http://www.w3.org/2000/svg" class="c" x="168.12" y="90.74" width="30.98" height="91.03" /><ns0:path xmlns:ns0="http://www.w3.org/2000/svg" class="c" d="M200.12,74.28c.09,8.49-6.78,14.49-16.5,14.41-9.73.08-16.59-5.92-16.5-14.41-.09-8.49,6.78-14.49,16.5-14.41,9.73-.08,16.59,5.92,16.5,14.41Z" />
  </g>
</svg>
